<?xml version="1.0" encoding="utf-8"?>
<!-- Generator: Adobe Illustrator 16.0.4, SVG Export Plug-In . SVG Version: 6.00 Build 0)  -->
<!DOCTYPE svg PUBLIC "-//W3C//DTD SVG 1.1//EN" "http://www.w3.org/Graphics/SVG/1.1/DTD/svg11.dtd">
<svg version="1.1" id="Layer_1" xmlns="http://www.w3.org/2000/svg" xmlns:xlink="http://www.w3.org/1999/xlink" x="0px" y="0px"
	 width="128px" height="128px" viewBox="0 0 128 128" enable-background="new 0 0 128 128" xml:space="preserve">
<g>
	<path fill="#343434" d="M57.19,41.075c-1.73-1.579-12.691-10.749-27.691-3.826c1.002,1.943,2.581,4.494,4.979,6.771
		c5.132,4.858,12.085,6.741,20.678,5.587C55.764,46.723,56.432,43.869,57.19,41.075z"/>
	<path fill="#343434" d="M65.661,99.977c0.243,1.336,2.217,2.841,2.096,4.268c-0.183,2.034-3.734,1.679-6.346,1.739
		c0-0.729-0.243-1.24-0.213-2c-0.85,0.486-1.275,1.08-2.095,1.869c-0.304,0.273-2.126,1.513-2.096,1.968
		c0,0.03,0.881,0.877,1.094,1.089c0.789,0.851,1.457,1.548,2.186,2.276c0.365,0.364,0.851,0.971,1.094,0.789
		c0.121-0.668,0.03-1.52,0.395-1.975c6.193,1.184,12.023-2.159,9.746-7.928C70.944,100.584,69.852,99,69.244,98
		c-0.091,0-0.151,0-0.213,0C67.848,98,66.451,98.914,65.661,99.977z"/>
	<path fill="#343434" d="M49.843,104.321c-0.152-1.821,1.518-3.917,2.277-5.161c0.576,0.242,1.153,0.516,1.791,0.698
		c-0.425-1.883-0.668-3.887-1.396-5.466c-1.883,0.577-3.978,0.972-5.86,1.579c0.607,0.425,1.275,0.789,1.7,1.396
		c-0.911,1.64-2.338,3.279-2.793,5.071c-0.972,3.734,1.548,7.044,4.979,7.438c1.609,0.213,3.127,0,4.858,0.213
		c0.182-1.154,0.151-2.915,0-4.068C53.273,105.385,50.024,106.599,49.843,104.321z"/>
	<path fill="#343434" d="M59.619,85.163c-4.797-0.577-5.981,3.674-7.955,6.467c1.185,0.607,2.368,1.73,3.674,1.883
		c0.698-0.911,1.609-3.796,2.976-4.069c2.277-0.455,3.583,3.553,4.464,4.646c-0.486,0.486-1.062,0.851-1.579,1.306
		c1.822,0.547,3.522,1.185,5.466,1.579c0.395-2.004,1.305-4.038,1.487-5.951c-0.547,0.364-1.124,0.698-1.974,0.789
		C64.629,88.958,63.354,85.618,59.619,85.163z"/>
	<path fill="#343434" d="M71.673,26.076c-1.062,2.702-1.974,5.405-2.763,8.077c10.81,2.55,19.312,0.88,25.354-5.01
		c2.277-2.217,3.765-4.646,4.706-6.528C84.852,16.117,74.315,23.829,71.673,26.076z"/>
	<path fill="#343434" d="M116,0H12C5.373,0,0,5.751,0,12.538v103.424C0,122.748,5.373,128,12,128h104c6.627,0,12-5.252,12-12.038
		V12.538C128,5.751,122.627,0,116,0z M108.808,21.734c-0.091,0.304-2.095,7.651-8.441,13.846
		c-4.433,4.312-11.599,8.714-22.499,8.714c-3.37,0-6.953-0.177-11.052-1.149C63.87,53.65,63.172,65,63.84,75
		c0.789,0,1.549,0,2.156,0h16.183C83.363,75,84,75.477,84,76.661v5.404C84,83.25,83.363,84,82.179,84h-0.151
		c-0.577,0-1.366,0-2.156,0l-0.03,0.535l-3.188,30.692c-4.555,1.306-10.962,2.153-18.066,2.153s-13.512-0.806-18.065-2.111
		l-3.188-30.741L37.303,84c-0.79,0-1.549,0-2.156,0h-0.151C33.811,84,33,83.25,33,82.065v-5.404C33,75.477,33.811,75,34.995,75
		h14.938c0.577,0,1.366,0,2.155,0c0.213-5,0.607-10.359,1.397-15.976c-1.063,0.091-2.096-0.002-3.098-0.002
		c-10.9,0-18.096-4.465-22.499-8.776c-6.346-6.194-8.35-13.573-8.44-13.877l-0.851-3.264l2.885-1.738
		c12.388-7.469,23.197-6.137,30.09-3.708c3.492,1.245,6.315,2.882,8.38,4.279c1.154-3.37,2.398-6.711,3.796-10.142l0.334-0.851
		c0,0,5.374-5.314,12.782-7.925c6.893-2.459,17.702-3.765,30.09,3.704l2.703,1.761L108.808,21.734z"/>
</g>
</svg>
